<svg width="412" height="348" viewBox="0 0 412 348" fill="none" xmlns="http://www.w3.org/2000/svg">
<path d="M407.283 161.063L287.635 20.3493H287.575C277.669 8.71258 264.063 2.08863 249.979 0.596752C248.13 0.238701 246.22 0 244.251 0H0C0 21.125 27.928 38.1921 48.9933 38.1921H189.827C187.917 43.5032 186.843 48.9934 186.545 54.6028H66.9556C66.9556 75.7279 94.8836 92.795 115.949 92.795H198.42C199.017 93.5708 199.554 94.3465 200.151 95.0626L212.026 109.027H136.955C136.955 130.152 164.883 147.219 185.948 147.219H244.549L254.992 159.512L270.269 141.311C278.385 131.644 278.325 117.56 270.15 107.952L234.345 65.8814C229.869 60.63 230.525 52.6932 235.777 48.2176C241.028 43.7419 248.965 44.3387 253.5 49.6498L356.022 170.194C357.872 172.342 357.872 175.505 356.022 177.653L253.5 298.197C248.965 303.449 241.028 304.105 235.777 299.629C230.525 295.154 229.929 287.217 234.345 281.965L315.264 186.843C321.53 179.443 321.53 168.642 315.264 161.242L303.866 147.816L288.47 129.674L289.663 135.105C291.036 141.251 289.484 147.696 285.367 152.53L200.091 252.844C179.563 277.012 182.427 313.414 206.536 334.002C217.337 343.192 230.585 347.728 243.773 347.728C260.005 347.728 276.117 340.925 287.515 327.677L407.224 186.843C413.49 179.443 413.49 168.583 407.224 161.242" fill="#FF8C00"/>
</svg>
